<mxfile host="app.diagrams.net" modified="2021-11-04T07:50:19.923Z" agent="5.0 (Macintosh; Intel Mac OS X 10_15_7) AppleWebKit/537.36 (KHTML, like Gecko) Chrome/95.0.4638.54 Safari/537.36" etag="LHeOBMZTU24pUk6rnpdD" version="15.6.8" type="github">
  <diagram id="9dK64Gs7onYfFGPoFXSR" name="第 1 页">
    <mxGraphModel dx="949" dy="653" grid="1" gridSize="10" guides="1" tooltips="1" connect="1" arrows="1" fold="1" page="1" pageScale="1" pageWidth="827" pageHeight="1169" math="0" shadow="0">
      <root>
        <mxCell id="0" />
        <mxCell id="1" parent="0" />
        <mxCell id="kR91ONEozVQPjnB0ktHO-66" value="" style="rounded=0;whiteSpace=wrap;html=1;fillColor=#dae8fc;strokeColor=none;dashed=1;" vertex="1" parent="1">
          <mxGeometry x="140" y="370" width="210" height="120" as="geometry" />
        </mxCell>
        <mxCell id="kR91ONEozVQPjnB0ktHO-3" value="" style="rounded=0;whiteSpace=wrap;html=1;fillColor=none;strokeColor=#66B2FF;dashed=1;" vertex="1" parent="1">
          <mxGeometry x="370" width="210" height="340" as="geometry" />
        </mxCell>
        <mxCell id="kR91ONEozVQPjnB0ktHO-43" value="" style="rounded=0;whiteSpace=wrap;html=1;fillColor=#dae8fc;strokeColor=none;dashed=1;" vertex="1" parent="1">
          <mxGeometry x="380" y="70" width="190" height="100" as="geometry" />
        </mxCell>
        <mxCell id="kR91ONEozVQPjnB0ktHO-29" value="" style="rounded=0;whiteSpace=wrap;html=1;fillColor=none;strokeColor=#66B2FF;dashed=1;" vertex="1" parent="1">
          <mxGeometry x="590" width="210" height="340" as="geometry" />
        </mxCell>
        <mxCell id="kR91ONEozVQPjnB0ktHO-28" value="" style="rounded=0;whiteSpace=wrap;html=1;fillColor=none;strokeColor=#66B2FF;dashed=1;strokeWidth=1;" vertex="1" parent="1">
          <mxGeometry x="130" width="230" height="340" as="geometry" />
        </mxCell>
        <mxCell id="kR91ONEozVQPjnB0ktHO-14" value="" style="rounded=0;whiteSpace=wrap;html=1;fillColor=#dae8fc;strokeColor=none;dashed=1;" vertex="1" parent="1">
          <mxGeometry x="140" y="30" width="210" height="130" as="geometry" />
        </mxCell>
        <mxCell id="kR91ONEozVQPjnB0ktHO-1" value="文本" style="rounded=0;whiteSpace=wrap;html=1;strokeColor=none;fillColor=#66B2FF;fontColor=#ffffff;" vertex="1" parent="1">
          <mxGeometry x="150" y="66" width="90" height="30" as="geometry" />
        </mxCell>
        <mxCell id="kR91ONEozVQPjnB0ktHO-2" value="图片" style="rounded=0;whiteSpace=wrap;html=1;strokeColor=none;fillColor=#66B2FF;fontColor=#ffffff;" vertex="1" parent="1">
          <mxGeometry x="250" y="66" width="90" height="30" as="geometry" />
        </mxCell>
        <mxCell id="kR91ONEozVQPjnB0ktHO-4" value="表情" style="rounded=0;whiteSpace=wrap;html=1;strokeColor=none;fillColor=#66B2FF;fontColor=#ffffff;" vertex="1" parent="1">
          <mxGeometry x="150" y="106" width="90" height="30" as="geometry" />
        </mxCell>
        <mxCell id="kR91ONEozVQPjnB0ktHO-5" value="文件" style="rounded=0;whiteSpace=wrap;html=1;strokeColor=none;fillColor=#66B2FF;fontColor=#ffffff;" vertex="1" parent="1">
          <mxGeometry x="250" y="106" width="90" height="30" as="geometry" />
        </mxCell>
        <mxCell id="kR91ONEozVQPjnB0ktHO-6" value="" style="rounded=0;whiteSpace=wrap;html=1;fillColor=#dae8fc;strokeColor=none;dashed=1;" vertex="1" parent="1">
          <mxGeometry x="140" y="179" width="210" height="150" as="geometry" />
        </mxCell>
        <mxCell id="kR91ONEozVQPjnB0ktHO-7" value="自定义消息/DX模版" style="text;html=1;strokeColor=none;fillColor=none;align=center;verticalAlign=middle;whiteSpace=wrap;rounded=0;dashed=1;fontColor=#999999;" vertex="1" parent="1">
          <mxGeometry x="147.5" y="179" width="112.5" height="30" as="geometry" />
        </mxCell>
        <mxCell id="kR91ONEozVQPjnB0ktHO-8" value="卡片" style="rounded=0;whiteSpace=wrap;html=1;strokeColor=none;fillColor=#66B2FF;fontColor=#ffffff;" vertex="1" parent="1">
          <mxGeometry x="150" y="209" width="90" height="30" as="geometry" />
        </mxCell>
        <mxCell id="kR91ONEozVQPjnB0ktHO-9" value="商品宝贝" style="rounded=0;whiteSpace=wrap;html=1;strokeColor=none;fillColor=#66B2FF;fontColor=#ffffff;" vertex="1" parent="1">
          <mxGeometry x="250" y="209" width="90" height="30" as="geometry" />
        </mxCell>
        <mxCell id="kR91ONEozVQPjnB0ktHO-10" value="红包" style="rounded=0;whiteSpace=wrap;html=1;strokeColor=none;fillColor=#66B2FF;fontColor=#ffffff;" vertex="1" parent="1">
          <mxGeometry x="150" y="249" width="90" height="30" as="geometry" />
        </mxCell>
        <mxCell id="kR91ONEozVQPjnB0ktHO-11" value="通知模版" style="rounded=0;whiteSpace=wrap;html=1;strokeColor=none;fillColor=#66B2FF;fontColor=#ffffff;" vertex="1" parent="1">
          <mxGeometry x="250" y="249" width="90" height="30" as="geometry" />
        </mxCell>
        <mxCell id="kR91ONEozVQPjnB0ktHO-12" value="..." style="rounded=0;whiteSpace=wrap;html=1;strokeColor=none;fillColor=#66B2FF;fontColor=#ffffff;" vertex="1" parent="1">
          <mxGeometry x="150" y="289" width="190" height="30" as="geometry" />
        </mxCell>
        <mxCell id="kR91ONEozVQPjnB0ktHO-13" style="edgeStyle=orthogonalEdgeStyle;rounded=0;orthogonalLoop=1;jettySize=auto;html=1;exitX=0.5;exitY=1;exitDx=0;exitDy=0;fontColor=#999999;" edge="1" parent="1" source="kR91ONEozVQPjnB0ktHO-6" target="kR91ONEozVQPjnB0ktHO-6">
          <mxGeometry relative="1" as="geometry" />
        </mxCell>
        <mxCell id="kR91ONEozVQPjnB0ktHO-15" value="基础消息" style="text;html=1;strokeColor=none;fillColor=none;align=center;verticalAlign=middle;whiteSpace=wrap;rounded=0;dashed=1;fontColor=#999999;" vertex="1" parent="1">
          <mxGeometry x="140" y="36" width="75" height="30" as="geometry" />
        </mxCell>
        <mxCell id="kR91ONEozVQPjnB0ktHO-17" value="会话窗口" style="text;html=1;strokeColor=none;fillColor=none;align=center;verticalAlign=middle;whiteSpace=wrap;rounded=0;dashed=1;fontColor=#5E5E5E;fontSize=14;" vertex="1" parent="1">
          <mxGeometry x="147.5" width="60" height="30" as="geometry" />
        </mxCell>
        <mxCell id="kR91ONEozVQPjnB0ktHO-18" value="服务面板" style="text;html=1;strokeColor=none;fillColor=none;align=center;verticalAlign=middle;whiteSpace=wrap;rounded=0;dashed=1;fontColor=#5E5E5E;fontSize=14;" vertex="1" parent="1">
          <mxGeometry x="380" width="60" height="30" as="geometry" />
        </mxCell>
        <mxCell id="kR91ONEozVQPjnB0ktHO-19" value="买家信息/打标" style="rounded=0;whiteSpace=wrap;html=1;strokeColor=none;fillColor=#66B2FF;fontColor=#ffffff;" vertex="1" parent="1">
          <mxGeometry x="380" y="30" width="190" height="30" as="geometry" />
        </mxCell>
        <mxCell id="kR91ONEozVQPjnB0ktHO-21" value="" style="rounded=0;whiteSpace=wrap;html=1;fillColor=#dae8fc;strokeColor=none;dashed=1;" vertex="1" parent="1">
          <mxGeometry x="380" y="180" width="190" height="150" as="geometry" />
        </mxCell>
        <mxCell id="kR91ONEozVQPjnB0ktHO-22" value="私域营销" style="text;html=1;strokeColor=none;fillColor=none;align=center;verticalAlign=middle;whiteSpace=wrap;rounded=0;dashed=1;fontColor=#999999;" vertex="1" parent="1">
          <mxGeometry x="380" y="180" width="75" height="30" as="geometry" />
        </mxCell>
        <mxCell id="kR91ONEozVQPjnB0ktHO-23" value="订单" style="rounded=0;whiteSpace=wrap;html=1;strokeColor=none;fillColor=#66B2FF;fontColor=#ffffff;" vertex="1" parent="1">
          <mxGeometry x="390" y="96" width="80" height="30" as="geometry" />
        </mxCell>
        <mxCell id="kR91ONEozVQPjnB0ktHO-24" value="商品" style="rounded=0;whiteSpace=wrap;html=1;strokeColor=none;fillColor=#66B2FF;fontColor=#ffffff;" vertex="1" parent="1">
          <mxGeometry x="480" y="96" width="80" height="30" as="geometry" />
        </mxCell>
        <mxCell id="kR91ONEozVQPjnB0ktHO-25" value="会员" style="rounded=0;whiteSpace=wrap;html=1;strokeColor=none;fillColor=#66B2FF;fontColor=#ffffff;" vertex="1" parent="1">
          <mxGeometry x="390" y="210" width="80" height="30" as="geometry" />
        </mxCell>
        <mxCell id="kR91ONEozVQPjnB0ktHO-27" value="..." style="rounded=0;whiteSpace=wrap;html=1;strokeColor=none;fillColor=#66B2FF;fontColor=#ffffff;" vertex="1" parent="1">
          <mxGeometry x="390" y="290" width="170" height="30" as="geometry" />
        </mxCell>
        <mxCell id="kR91ONEozVQPjnB0ktHO-30" value="其他业务" style="text;html=1;strokeColor=none;fillColor=none;align=center;verticalAlign=middle;whiteSpace=wrap;rounded=0;dashed=1;fontColor=#5E5E5E;fontSize=14;" vertex="1" parent="1">
          <mxGeometry x="600" width="60" height="30" as="geometry" />
        </mxCell>
        <mxCell id="kR91ONEozVQPjnB0ktHO-31" value="数据大盘" style="rounded=0;whiteSpace=wrap;html=1;strokeColor=none;fillColor=#66B2FF;fontColor=#ffffff;" vertex="1" parent="1">
          <mxGeometry x="600" y="30" width="190" height="30" as="geometry" />
        </mxCell>
        <mxCell id="kR91ONEozVQPjnB0ktHO-33" value="名片" style="rounded=0;whiteSpace=wrap;html=1;strokeColor=none;fillColor=#66B2FF;fontColor=#ffffff;" vertex="1" parent="1">
          <mxGeometry x="390" y="250" width="80" height="30" as="geometry" />
        </mxCell>
        <mxCell id="kR91ONEozVQPjnB0ktHO-35" value="..." style="rounded=0;whiteSpace=wrap;html=1;strokeColor=none;fillColor=#66B2FF;fontColor=#ffffff;" vertex="1" parent="1">
          <mxGeometry x="600" y="170" width="190" height="30" as="geometry" />
        </mxCell>
        <mxCell id="kR91ONEozVQPjnB0ktHO-36" value="商家成长" style="rounded=0;whiteSpace=wrap;html=1;strokeColor=none;fillColor=#66B2FF;fontColor=#ffffff;" vertex="1" parent="1">
          <mxGeometry x="600" y="76" width="190" height="30" as="geometry" />
        </mxCell>
        <mxCell id="kR91ONEozVQPjnB0ktHO-37" value="" style="endArrow=none;html=1;rounded=0;fontSize=14;fontColor=#5E5E5E;strokeWidth=4;strokeColor=#999999;" edge="1" parent="1">
          <mxGeometry width="50" height="50" relative="1" as="geometry">
            <mxPoint x="70" y="350" as="sourcePoint" />
            <mxPoint x="830" y="350" as="targetPoint" />
          </mxGeometry>
        </mxCell>
        <mxCell id="kR91ONEozVQPjnB0ktHO-40" value="活动/券" style="rounded=0;whiteSpace=wrap;html=1;strokeColor=none;fillColor=#66B2FF;fontColor=#ffffff;" vertex="1" parent="1">
          <mxGeometry x="480" y="210" width="80" height="30" as="geometry" />
        </mxCell>
        <mxCell id="kR91ONEozVQPjnB0ktHO-41" value="返利/直播" style="rounded=0;whiteSpace=wrap;html=1;strokeColor=none;fillColor=#66B2FF;fontColor=#ffffff;" vertex="1" parent="1">
          <mxGeometry x="480" y="250" width="80" height="30" as="geometry" />
        </mxCell>
        <mxCell id="kR91ONEozVQPjnB0ktHO-42" value="知识库" style="rounded=0;whiteSpace=wrap;html=1;strokeColor=none;fillColor=#66B2FF;fontColor=#ffffff;" vertex="1" parent="1">
          <mxGeometry x="390" y="130" width="80" height="30" as="geometry" />
        </mxCell>
        <mxCell id="kR91ONEozVQPjnB0ktHO-45" value="问题解答" style="text;html=1;strokeColor=none;fillColor=none;align=center;verticalAlign=middle;whiteSpace=wrap;rounded=0;dashed=1;fontColor=#999999;" vertex="1" parent="1">
          <mxGeometry x="380" y="66" width="75" height="30" as="geometry" />
        </mxCell>
        <mxCell id="kR91ONEozVQPjnB0ktHO-49" value="商家社区" style="rounded=0;whiteSpace=wrap;html=1;strokeColor=none;fillColor=#66B2FF;fontColor=#ffffff;" vertex="1" parent="1">
          <mxGeometry x="600" y="120" width="190" height="30" as="geometry" />
        </mxCell>
        <mxCell id="kR91ONEozVQPjnB0ktHO-52" value="" style="rounded=0;whiteSpace=wrap;html=1;fillColor=none;strokeColor=#66B2FF;dashed=1;strokeWidth=1;" vertex="1" parent="1">
          <mxGeometry x="130" y="360" width="460" height="140" as="geometry" />
        </mxCell>
        <mxCell id="kR91ONEozVQPjnB0ktHO-54" value="" style="rounded=0;whiteSpace=wrap;html=1;fillColor=#dae8fc;strokeColor=none;dashed=1;" vertex="1" parent="1">
          <mxGeometry x="370" y="370" width="210" height="120" as="geometry" />
        </mxCell>
        <mxCell id="kR91ONEozVQPjnB0ktHO-56" value="UI" style="text;html=1;strokeColor=none;fillColor=none;align=center;verticalAlign=middle;whiteSpace=wrap;rounded=0;dashed=1;fontSize=14;fontColor=#5E5E5E;" vertex="1" parent="1">
          <mxGeometry x="50" y="149" width="60" height="30" as="geometry" />
        </mxCell>
        <mxCell id="kR91ONEozVQPjnB0ktHO-57" value="JSSDK" style="text;html=1;strokeColor=none;fillColor=none;align=center;verticalAlign=middle;whiteSpace=wrap;rounded=0;dashed=1;fontSize=14;fontColor=#5E5E5E;" vertex="1" parent="1">
          <mxGeometry x="50" y="415" width="60" height="30" as="geometry" />
        </mxCell>
        <mxCell id="kR91ONEozVQPjnB0ktHO-58" value="" style="endArrow=none;html=1;rounded=0;fontSize=14;fontColor=#5E5E5E;strokeWidth=4;strokeColor=#999999;" edge="1" parent="1">
          <mxGeometry width="50" height="50" relative="1" as="geometry">
            <mxPoint x="67" y="520" as="sourcePoint" />
            <mxPoint x="590" y="520" as="targetPoint" />
          </mxGeometry>
        </mxCell>
        <mxCell id="kR91ONEozVQPjnB0ktHO-59" value="端侧" style="text;html=1;strokeColor=none;fillColor=none;align=center;verticalAlign=middle;whiteSpace=wrap;rounded=0;dashed=1;fontSize=14;fontColor=#5E5E5E;" vertex="1" parent="1">
          <mxGeometry x="40" y="545" width="70" height="30" as="geometry" />
        </mxCell>
        <mxCell id="kR91ONEozVQPjnB0ktHO-60" value="" style="rounded=0;whiteSpace=wrap;html=1;fillColor=none;strokeColor=#66B2FF;dashed=1;strokeWidth=1;" vertex="1" parent="1">
          <mxGeometry x="130" y="530" width="460" height="80" as="geometry" />
        </mxCell>
        <mxCell id="kR91ONEozVQPjnB0ktHO-62" value="钉钉 IM Paas" style="rounded=0;whiteSpace=wrap;html=1;strokeColor=none;fillColor=#66B2FF;fontColor=#ffffff;" vertex="1" parent="1">
          <mxGeometry x="140" y="550" width="440" height="35" as="geometry" />
        </mxCell>
        <mxCell id="kR91ONEozVQPjnB0ktHO-63" value="QN jssdk" style="rounded=0;whiteSpace=wrap;html=1;strokeColor=none;fillColor=#66B2FF;fontColor=#ffffff;" vertex="1" parent="1">
          <mxGeometry x="380" y="440" width="190" height="35" as="geometry" />
        </mxCell>
        <mxCell id="kR91ONEozVQPjnB0ktHO-64" value="@ali/rox-qn-bridge" style="rounded=0;whiteSpace=wrap;html=1;strokeColor=none;fillColor=#66B2FF;fontColor=#ffffff;" vertex="1" parent="1">
          <mxGeometry x="380" y="390" width="190" height="35" as="geometry" />
        </mxCell>
        <mxCell id="kR91ONEozVQPjnB0ktHO-68" value="tb-im-sdk" style="rounded=0;whiteSpace=wrap;html=1;strokeColor=none;fillColor=#66B2FF;fontColor=#ffffff;" vertex="1" parent="1">
          <mxGeometry x="150" y="440" width="190" height="35" as="geometry" />
        </mxCell>
        <mxCell id="kR91ONEozVQPjnB0ktHO-69" value="view-store(统一接口层)" style="rounded=0;whiteSpace=wrap;html=1;strokeColor=none;fillColor=#66B2FF;fontColor=#ffffff;" vertex="1" parent="1">
          <mxGeometry x="150" y="390" width="190" height="35" as="geometry" />
        </mxCell>
        <mxCell id="kR91ONEozVQPjnB0ktHO-72" value="" style="rounded=0;whiteSpace=wrap;html=1;dashed=1;fontSize=14;strokeColor=#6c8ebf;strokeWidth=1;fillColor=#dae8fc;" vertex="1" parent="1">
          <mxGeometry x="600" y="370" width="90" height="230" as="geometry" />
        </mxCell>
        <mxCell id="kR91ONEozVQPjnB0ktHO-74" value="" style="rounded=0;whiteSpace=wrap;html=1;dashed=1;fontSize=14;strokeColor=#6c8ebf;strokeWidth=1;fillColor=#dae8fc;" vertex="1" parent="1">
          <mxGeometry x="700" y="370" width="90" height="230" as="geometry" />
        </mxCell>
        <mxCell id="kR91ONEozVQPjnB0ktHO-75" value="性能优化" style="text;html=1;strokeColor=none;fillColor=none;align=center;verticalAlign=middle;whiteSpace=wrap;rounded=0;dashed=1;fontColor=#999999;" vertex="1" parent="1">
          <mxGeometry x="607.5" y="370" width="75" height="30" as="geometry" />
        </mxCell>
        <mxCell id="kR91ONEozVQPjnB0ktHO-76" value="性能监控" style="text;html=1;strokeColor=none;fillColor=none;align=center;verticalAlign=middle;whiteSpace=wrap;rounded=0;dashed=1;fontColor=#999999;" vertex="1" parent="1">
          <mxGeometry x="707.5" y="370" width="75" height="30" as="geometry" />
        </mxCell>
        <mxCell id="kR91ONEozVQPjnB0ktHO-78" value="" style="rounded=1;whiteSpace=wrap;html=1;dashed=1;fontSize=14;strokeColor=#d6b656;strokeWidth=1;fillColor=#fff2cc;" vertex="1" parent="1">
          <mxGeometry x="610" y="415" width="70" height="155" as="geometry" />
        </mxCell>
        <mxCell id="kR91ONEozVQPjnB0ktHO-79" value="" style="rounded=1;whiteSpace=wrap;html=1;dashed=1;fontSize=14;strokeColor=#36393d;strokeWidth=1;fillColor=#f9f7ed;" vertex="1" parent="1">
          <mxGeometry x="710" y="415" width="70" height="155" as="geometry" />
        </mxCell>
        <mxCell id="kR91ONEozVQPjnB0ktHO-80" value="&lt;font style=&quot;font-size: 12px&quot;&gt;缓存&lt;br&gt;预加载&lt;br&gt;&lt;br&gt;&lt;/font&gt;" style="text;html=1;strokeColor=none;fillColor=none;align=center;verticalAlign=middle;whiteSpace=wrap;rounded=0;dashed=1;fontSize=14;fontColor=#808080;" vertex="1" parent="1">
          <mxGeometry x="615" y="430" width="60" height="130" as="geometry" />
        </mxCell>
        <mxCell id="kR91ONEozVQPjnB0ktHO-81" value="&lt;font style=&quot;font-size: 12px&quot;&gt;打点&lt;br&gt;crash&lt;br&gt;&lt;/font&gt;" style="text;html=1;strokeColor=none;fillColor=none;align=center;verticalAlign=middle;whiteSpace=wrap;rounded=0;dashed=1;fontSize=14;fontColor=#808080;" vertex="1" parent="1">
          <mxGeometry x="715" y="420" width="60" height="130" as="geometry" />
        </mxCell>
      </root>
    </mxGraphModel>
  </diagram>
</mxfile>
